<?xml version="1.0" encoding="UTF-8"?>
<!DOCTYPE svg PUBLIC "-//W3C//DTD SVG 1.1//EN" "http://www.w3.org/Graphics/SVG/1.1/DTD/svg11.dtd">
<!-- Creator: CorelDRAW 2019 (64-Bit) -->
<svg xmlns="http://www.w3.org/2000/svg" xml:space="preserve" width="120px" height="120px" version="1.1" style="shape-rendering:geometricPrecision; text-rendering:geometricPrecision; image-rendering:optimizeQuality; fill-rule:evenodd; clip-rule:evenodd"
viewBox="0 0 6.76 6.76"
 xmlns:xlink="http://www.w3.org/1999/xlink"
 xmlns:xodm="http://www.corel.com/coreldraw/odm/2003">
 <defs>
  <style type="text/css">
   <![CDATA[
    .fil1 {fill:#485575}
    .fil0 {fill:#E27715}
   ]]>
  </style>
 </defs>
 <g id="Слой_x0020_1">
  <metadata id="CorelCorpID_0Corel-Layer"/>
  <g id="favicon">
   <path class="fil0" d="M1.41 6.19c0.37,0.02 0.22,-0.32 0.14,-0.5 -0.54,-0.28 -0.76,-0.64 -0.49,-1.09 0.27,1.71 2.39,-0.52 2.41,-0.94 -0.32,-0.81 -1.65,-0.37 -1.52,-1.78l0.88 0.1c0.27,-0.32 0.68,-0.39 1.16,-0.22 -0.62,-0.52 -0.25,-0.7 -0.62,-1.27 -0.1,0.05 -0.16,0.11 -0.19,0.2 -0.23,-0.19 -0.23,-0.42 0,-0.69 -2.73,0.12 -4.6,3.93 -1.77,6.19z"/>
   <path class="fil1" d="M2.02 6.45c0.03,-0.18 2.98,-0.67 1.77,-1.44 -0.31,-0.07 -0.49,-0.22 -0.49,-0.44 0.03,-0.18 0.32,-0.23 0.47,-0.52 0.29,-0.25 0.39,0.19 0.61,-0.47 0.63,0.92 0.99,1.67 0.99,2.17 -0.03,1.02 -2.54,1.3 -3.35,0.7z"/>
   <path class="fil1" d="M3.75 0.01c2.58,0.37 3.88,3.16 2.38,5.37 -0.52,-0.18 -0.91,-2.26 -1.33,-2.23 -0.78,0.28 -1.3,-0.17 -1.03,-0.94 -0.17,1.21 1.82,1.09 0.37,-0.32l0.12 -0.13c0.51,0.42 1.1,1.86 1.37,1.83 -1.05,-1.26 -0.31,-2.64 -1.52,-3.06 -0.07,-0.03 -0.32,0.17 0.05,0.84 -0.71,-0.97 0.2,-0.84 -0.41,-1.36z"/>
  </g>
 </g>
</svg>
